<?xml version="1.0" encoding="UTF-8"?>
<svg id="Ebene_1" data-name="Ebene 1" xmlns="http://www.w3.org/2000/svg" xmlns:xlink="http://www.w3.org/1999/xlink" viewBox="0 0 1952.52 1952.52">
  <defs>
    <style>
      .cls-1 {
        fill: url(#Unbenannter_Verlauf_59);
      }

      .cls-2 {
        fill: url(#Unbenannter_Verlauf_32);
      }

      .cls-3 {
        fill: url(#Unbenannter_Verlauf_41);
      }
    </style>
    <linearGradient id="Unbenannter_Verlauf_59" data-name="Unbenannter Verlauf 59" x1="1634.28" y1="1345.94" x2="912.86" y2="1034.47" gradientUnits="userSpaceOnUse">
      <stop offset="0" stop-color="#b5e48c"/>
      <stop offset="1" stop-color="#99d98c"/>
    </linearGradient>
    <linearGradient id="Unbenannter_Verlauf_32" data-name="Unbenannter Verlauf 32" x1="784.82" y1="1680.07" x2="607.73" y2="417.49" gradientUnits="userSpaceOnUse">
      <stop offset="0" stop-color="#d9ed92"/>
      <stop offset="1" stop-color="#99d98c"/>
    </linearGradient>
    <linearGradient id="Unbenannter_Verlauf_41" data-name="Unbenannter Verlauf 41" x1="1136.08" y1="724.07" x2="917.68" y2="1270.8" gradientUnits="userSpaceOnUse">
      <stop offset="0" stop-color="#99d98c"/>
      <stop offset="1" stop-color="#d9ed92"/>
    </linearGradient>
  </defs>
  <path class="cls-1" d="M1527.52,631.65c-29.88.3-54.33,23.93-55.55,53.77-11.55,282.34-105.75,566.38-277.16,791.23-27,34.01-55.61,65.57-88.36,92.81-18.5,15.38-40.45,30.41-61.39,38.19-5.61,1.87-9.56,3.15-14.28,3.58-18.77.83-32.68-4.72-45.49-18.86-10.65-11.81-18.89-27.33-25.26-43.59l-.09-.21c-49.94-114.45-21.76-303.99-21.76-303.99.97-11.1,2.09-22.34,3.35-33.67,19.59-179.04,71.3-383.93,142.35-544.84l-142.23-32.71c-35.74,89.63-62.32,180.2-80.45,250.87-31.74,124.56-74.94,352.5-59.48,542.58-.2.23-.42.47-.62.7,6.45,58.91,24.37,164.71,72.69,233.26,0,.03.01.04.04.06,12.38,16.71,26.56,31.35,42.74,43.56,39.22,29.36,91.57,41.63,139.6,32.7,95.67-19.09,179.7-110.18,237.02-183.83,184.28-248.4,282.58-555.76,291.05-863.98.87-31.81-24.93-57.94-56.74-57.62Z"/>
  <path class="cls-2" d="M878.14,195.95c-15.97,0-32.34,4.08-47.79,13.01-11.89,6.87-24.04,14.84-36.4,24.1-172.2,128.78-270.22,377.52-331.65,576.39-64.89,213.7-153.4,659.99-38.28,858.3,29.68,50.65,80.95,87.54,142.09,88.8,45.88.5,91.26-11.16,135.67-32.17,50.64-23.95,99.99-60.08,147.26-104.24,7.3,14.6,15.54,28.19,24.77,40.64-48.32-68.54-66.24-174.34-72.69-233.26-4.87,5.52-9.8,11-14.78,16.44-28.5,30.72-68.91,70.99-112.36,100.51-32.02,21.75-65.69,37.68-97.45,39.61-6.02-8.29-9.87-17.76-14.09-30.82-15.11-50.98-17.24-105.4-17.11-159.66,5.34-284.07,110.07-696.38,281.01-924.52,24.93-31.82,59.34-70.3,98.2-91.51,31.02-16.93,49.93-49.87,49.93-85.23,0-56.11-46.1-96.39-96.32-96.39ZM571.46,1584.24h.06c.23-.01.49-.01.79.01-.24,0-.49.01-.73.01-.36,0-.11-.03-.11-.03Z"/>
  <path class="cls-3" d="M1396.15,372.87c-4.15-12.35-9.87-25.73-19.17-39.57-9.95-14.74-23.65-28.78-39.64-38.35-51-31.64-117.16-19.93-165.93,8.5-87.86,51.81-157.22,162.78-209.75,282.15-6.97,15.81-13.62,31.77-20,47.76l142.23,32.71c6.41-14.52,12.96-28.68,19.69-42.43,27.79-56.92,58.11-106.85,90.31-146.11,17.66-20.2,37.39-40.24,61.06-49.6,3.22,17.86,2.22,36.55.69,56.01-8.61,85.84-35.92,172.58-64.99,254.62-59.31,162.44-136.47,319.96-227.69,467.07-4.97,8.01-9.96,15.98-15.01,23.93-3.23,5.02-6.47,10.03-9.74,15.02,0,0-28.17,189.54,21.76,303.99-1.16-2.95-2.26-5.92-3.29-8.91-.66-1.9-1.3-3.81-1.92-5.71-2.23-6.91-4.26-14.05-6.08-21.39,54.99-67.28,105.83-142.45,150.99-217.32,72.2-119.68,129.89-238.58,166.82-323.29,63.13-146.16,179.44-446.51,129.67-599.09ZM1267.22,425.49s-.09,0-.13-.01c1.19,0,.72.07.13.01Z"/>
</svg>