<?xml version="1.0" encoding="UTF-8"?>
<svg id="Ebene_1" data-name="Ebene 1" xmlns="http://www.w3.org/2000/svg" xmlns:xlink="http://www.w3.org/1999/xlink" viewBox="0 0 3224.75 1172.06">
  <defs>
    <style>
      .cls-1 {
        fill: #fff;
      }

      .cls-2 {
        fill: url(#Unbenannter_Verlauf_59);
      }

      .cls-3 {
        fill: url(#Unbenannter_Verlauf_32);
      }

      .cls-4 {
        fill: url(#Unbenannter_Verlauf_41);
      }
    </style>
    <linearGradient id="Unbenannter_Verlauf_59" data-name="Unbenannter Verlauf 59" x1="1004.11" y1="778.92" x2="572.93" y2="592.76" gradientUnits="userSpaceOnUse">
      <stop offset="0" stop-color="#b5e48c"/>
      <stop offset="1" stop-color="#99d98c"/>
    </linearGradient>
    <linearGradient id="Unbenannter_Verlauf_32" data-name="Unbenannter Verlauf 32" x1="496.4" y1="978.61" x2="390.56" y2="224" gradientUnits="userSpaceOnUse">
      <stop offset="0" stop-color="#d9ed92"/>
      <stop offset="1" stop-color="#99d98c"/>
    </linearGradient>
    <linearGradient id="Unbenannter_Verlauf_41" data-name="Unbenannter Verlauf 41" x1="706.35" y1="407.24" x2="575.81" y2="734" gradientUnits="userSpaceOnUse">
      <stop offset="0" stop-color="#99d98c"/>
      <stop offset="1" stop-color="#d9ed92"/>
    </linearGradient>
  </defs>
  <g>
    <path class="cls-2" d="M940.3,352c-17.86.18-32.47,14.3-33.2,32.14-6.9,168.75-63.2,338.51-165.65,472.9-16.14,20.33-33.23,39.19-52.81,55.47-11.06,9.19-24.18,18.17-36.69,22.83-3.35,1.12-5.71,1.88-8.54,2.14-11.22.5-19.53-2.82-27.19-11.27-6.36-7.06-11.29-16.33-15.09-26.05l-.05-.13c-29.85-68.4-13.01-181.69-13.01-181.69.58-6.64,1.25-13.35,2-20.12,11.71-107.01,42.62-229.47,85.08-325.64l-85.01-19.55c-21.36,53.57-37.25,107.7-48.08,149.94-18.97,74.45-44.79,210.68-35.55,324.29-.12.14-.25.28-.37.42,3.86,35.21,14.56,98.45,43.45,139.41,0,.02,0,.03.03.03,7.4,9.99,15.87,18.74,25.55,26.03,23.44,17.55,54.73,24.88,83.44,19.54,57.18-11.41,107.4-65.85,141.66-109.87,110.14-148.46,168.89-332.16,173.95-516.38.52-19.01-14.9-34.63-33.91-34.44Z"/>
    <path class="cls-3" d="M552.18,91.59c-9.54,0-19.33,2.44-28.56,7.77-7.11,4.11-14.37,8.87-21.76,14.4-102.92,76.97-161.5,225.64-198.22,344.5-38.78,127.72-91.68,394.46-22.88,512.98,17.74,30.28,48.38,52.32,84.92,53.08,27.42.3,54.55-6.67,81.08-19.23,30.27-14.32,59.76-35.91,88.01-62.3,4.36,8.72,9.29,16.85,14.8,24.29-28.88-40.97-39.59-104.2-43.45-139.41-2.91,3.3-5.86,6.58-8.83,9.83-17.04,18.36-41.19,42.43-67.15,60.07-19.14,13-39.26,22.52-58.24,23.67-3.6-4.95-5.9-10.61-8.42-18.42-9.03-30.47-10.31-63-10.23-95.43,3.19-169.78,65.78-416.21,167.95-552.56,14.9-19.02,35.47-42.02,58.69-54.69,18.54-10.12,29.84-29.8,29.84-50.94,0-33.53-27.56-57.61-57.57-57.61ZM368.89,921.34h.03c.14,0,.29,0,.47,0-.15,0-.29,0-.44,0-.21,0-.07-.02-.07-.02Z"/>
    <path class="cls-4" d="M861.78,197.34c-2.48-7.38-5.9-15.38-11.46-23.65-5.94-8.81-14.14-17.2-23.69-22.92-30.48-18.91-70.03-11.91-99.17,5.08-52.51,30.97-93.96,97.29-125.36,168.63-4.16,9.45-8.14,18.99-11.96,28.55l85.01,19.55c3.83-8.68,7.75-17.14,11.77-25.36,16.61-34.02,34.73-63.86,53.97-87.33,10.55-12.08,22.35-24.05,36.49-29.64,1.92,10.67,1.33,21.84.41,33.47-5.15,51.31-21.47,103.15-38.84,152.18-35.45,97.09-81.56,191.23-136.08,279.16-2.97,4.79-5.95,9.55-8.97,14.3-1.93,3-3.87,6-5.82,8.98,0,0-16.84,113.28,13.01,181.69-.69-1.76-1.35-3.54-1.97-5.33-.39-1.14-.78-2.27-1.15-3.41-1.33-4.13-2.55-8.4-3.63-12.79,32.87-40.21,63.25-85.14,90.24-129.88,43.16-71.53,77.63-142.59,99.7-193.22,37.73-87.35,107.25-266.87,77.5-358.06ZM784.73,228.78s-.05,0-.08,0c.71,0,.43.04.08,0Z"/>
  </g>
  <g>
    <path class="cls-1" d="M1355.98,999.14l-163.13-624.01h128.37l108.76,487.62,127.48-487.62h133.72l123.91,487.62,109.65-487.62h130.15l-168.48,624.01h-143.52l-120.34-454.63-123.02,454.63h-143.52Z"/>
    <path class="cls-1" d="M2102.1,549.85v449.28h120.35v-449.28h-120.35Z"/>
    <path class="cls-1" d="M2510.37,999.14c-30.91,0-58.25-4.9-82.01-14.71-23.78-9.81-42.2-26.14-55.27-49.03-13.08-22.87-19.61-54.22-19.61-94.05v-190.77h-77.56v-100.73h77.56l13.37-123.02h106.97v123.02h118.56v100.73h-118.56v192.55c0,20.21,4.46,34.18,13.37,41.9,8.91,7.73,24.07,11.59,45.46,11.59h57.94v102.52h-80.23Z"/>
    <path class="cls-1" d="M2859.83,1009.83c-43.39,0-82.17-9.96-116.33-29.86-34.18-19.9-61.22-47.54-81.12-82.9-19.92-35.35-29.86-75.91-29.86-121.68s9.95-88.1,29.86-123.46c19.9-35.35,47.09-62.99,81.57-82.9,34.46-19.9,73.39-29.86,116.78-29.86s82.01,9.96,115.89,29.86c33.88,19.92,60.76,47.4,80.68,82.46,19.9,35.07,29.86,76.08,29.86,123.02s-9.96,87.22-29.86,122.57c-19.92,35.37-46.95,63-81.12,82.9-34.18,19.9-72.96,29.86-116.33,29.86ZM2859.83,905.54c19.01,0,36.4-4.9,52.15-14.71,15.74-9.81,28.53-24.51,38.33-44.13,9.81-19.61,14.71-43.68,14.71-72.21s-4.76-53.33-14.26-72.65c-9.51-19.31-21.99-33.88-37.44-43.68-15.46-9.81-32.69-14.71-51.7-14.71s-37.44,4.9-53.49,14.71c-16.05,9.81-28.83,24.38-38.33,43.68-9.51,19.32-14.26,43.54-14.26,72.65s4.6,52.59,13.82,72.21c9.21,19.61,21.84,34.32,37.89,44.13,16.05,9.81,33.57,14.71,52.6,14.71Z"/>
    <path class="cls-1" d="M2242.74,371.12c-24.79,50.55-63.29,113.63-88.47,127.27-8.92,1.48-13.13-9.59-14.95-16.81-2.8-11.53-3.35-22.95-3.43-35.06.72-43.1,8.04-76.21,19.43-112.58,11.77-34.77,34.04-93.15,74.09-107.24,24.24-8.09,44.47,5.95,46.44,28.23,2.83,37.12-17.38,82.44-33.01,115.98l-.1.21Z"/>
  </g>
</svg>